<svg width="24" height="26" viewBox="0 0 24 26" fill="none" xmlns="http://www.w3.org/2000/svg">
<path d="M8.00065 19.6667V21C8.00065 22.0609 8.42208 23.0783 9.17222 23.8284C9.92237 24.5786 10.9398 25 12.0007 25C13.0615 25 14.0789 24.5786 14.8291 23.8284C15.5792 23.0783 16.0007 22.0609 16.0007 21V19.6667M9.33398 3.66667C9.33398 2.95942 9.61494 2.28115 10.115 1.78105C10.6151 1.28095 11.2934 1 12.0007 1C12.7079 1 13.3862 1.28095 13.8863 1.78105C14.3864 2.28115 14.6673 2.95942 14.6673 3.66667C16.1985 4.3907 17.5039 5.51777 18.4434 6.92707C19.3829 8.33636 19.9212 9.97476 20.0007 11.6667V15.6667C20.101 16.4956 20.3946 17.2894 20.8577 17.9842C21.3209 18.6789 21.9407 19.2552 22.6673 19.6667H1.33398C2.06057 19.2552 2.6804 18.6789 3.14357 17.9842C3.60674 17.2894 3.90031 16.4956 4.00065 15.6667V11.6667C4.08006 9.97476 4.61839 8.33636 5.55792 6.92707C6.49745 5.51777 7.80277 4.3907 9.33398 3.66667Z" stroke="#464646" stroke-width="2" stroke-linecap="round" stroke-linejoin="round"/>
</svg>
