<svg width="27" height="24" viewBox="0 0 27 24" fill="none" xmlns="http://www.w3.org/2000/svg">
<path d="M23.9998 12.7627L13.9997 22.6667L3.99975 12.7627C3.34016 12.1208 2.82061 11.3493 2.47381 10.4968C2.12702 9.64433 1.9605 8.72926 1.98473 7.80924C2.00897 6.88921 2.22343 5.98417 2.61463 5.15111C3.00582 4.31804 3.56526 3.575 4.25773 2.96876C4.9502 2.36253 5.76069 1.90624 6.63817 1.62863C7.51564 1.35102 8.44109 1.2581 9.35624 1.35573C10.2714 1.45335 11.1564 1.7394 11.9556 2.19587C12.7548 2.65233 13.4507 3.26933 13.9997 4.00799C14.5511 3.27469 15.2479 2.66309 16.0466 2.21146C16.8452 1.75984 17.7284 1.47792 18.641 1.38335C19.5536 1.28878 20.4759 1.38359 21.3501 1.66185C22.2244 1.94011 23.0318 2.39582 23.7218 3.00048C24.4119 3.60513 24.9697 4.3457 25.3603 5.17585C25.751 6.00599 25.9661 6.90784 25.9922 7.82494C26.0183 8.74204 25.8548 9.65465 25.5119 10.5057C25.1691 11.3567 24.6543 12.1278 23.9998 12.7707" stroke="#464646" stroke-width="2" stroke-linecap="round" stroke-linejoin="round"/>
</svg>
