<svg width="24" height="24" viewBox="0 0 24 24" fill="none" xmlns="http://www.w3.org/2000/svg">
<path d="M17.333 16C14.3863 17.7773 9.61034 17.7773 6.66634 16M21.333 7.61331L14.2224 2.08264C13.5984 1.59719 12.8303 1.33362 12.0397 1.33362C11.2491 1.33362 10.4811 1.59719 9.85705 2.08264L2.74505 7.61331C2.31764 7.94569 1.97184 8.37135 1.73405 8.85778C1.49627 9.3442 1.37279 9.87854 1.37305 10.42V20.02C1.37305 20.7272 1.654 21.4055 2.1541 21.9056C2.65419 22.4057 3.33247 22.6866 4.03971 22.6866H20.0397C20.747 22.6866 21.4252 22.4057 21.9253 21.9056C22.4254 21.4055 22.7064 20.7272 22.7064 20.02V10.42C22.7064 9.32264 22.1997 8.28664 21.333 7.61331Z" stroke="white" stroke-width="2" stroke-linecap="round" stroke-linejoin="round"/>
</svg>
